<?xml version="1.0" encoding="utf-8"?>
<!-- Generator: Adobe Illustrator 16.0.0, SVG Export Plug-In . SVG Version: 6.00 Build 0)  -->
<!DOCTYPE svg PUBLIC "-//W3C//DTD SVG 1.1//EN" "http://www.w3.org/Graphics/SVG/1.1/DTD/svg11.dtd">
<svg version="1.1" id="Layer_1" xmlns="http://www.w3.org/2000/svg" xmlns:xlink="http://www.w3.org/1999/xlink" x="0px" y="0px"
	 width="60px" height="180.593px" viewBox="0 0 60 180.593" enable-background="new 0 0 60 180.593" xml:space="preserve">
<g>
	<g>
		<path fill="#FFFFFF" d="M41.953,86.5H20.042c-0.851,0-1.542-0.689-1.542-1.543s0.691-1.544,1.542-1.544h21.911
			c0.854,0,1.543,0.69,1.543,1.544S42.807,86.5,41.953,86.5z"/>
		<path fill="#FFFFFF" d="M41.953,93.5H20.042c-0.851,0-1.542-0.688-1.542-1.543c0-0.854,0.691-1.542,1.542-1.542h21.911
			c0.854,0,1.543,0.688,1.543,1.542C43.496,92.811,42.807,93.5,41.953,93.5z"/>
		<path fill="#FFFFFF" d="M41.953,100.5H20.042c-0.851,0-1.542-0.688-1.542-1.543c0-0.852,0.691-1.541,1.542-1.541h21.911
			c0.854,0,1.543,0.689,1.543,1.541C43.496,99.811,42.807,100.5,41.953,100.5z"/>
	</g>
	<g transform="translate(0 525)">
		<g id="icon-arrow-down">
			<path fill="#FFFFFF" d="M32.602-383.993l-7.223,8.375c-0.578,0.656-0.578,1.718,0,2.375l7.318,8.396
				c0.586,0.658,1.5,0.658,2.029,0c0.652-0.663,0.652-1.729,0-2.379l-4.751-5.521c0,0-1.296-1.658-1.348-1.658
				c-0.036,0,1.303-1.727,1.348-1.727l4.751-5.529c0.225-0.313,0.434-0.854,0.426-1.075c0-0.433-0.137-0.853-0.426-1.21
				c-0.732-0.688-1.586-0.725-2.146-0.066L32.602-383.993L32.602-383.993z"/>
		</g>
	</g>
	<path fill="#FFFFFF" d="M35.331,32.853c2.048-3.245,1.671-7.588-1.117-10.416c-3.229-3.258-8.464-3.258-11.687,0
		c-3.228,3.268-3.228,8.607,0,11.839c2.794,2.785,7.088,3.167,10.253,1.138l4.034,4.119c0.693,0.765,1.771,0.765,2.536,0
		c0.714-0.676,0.709-1.833,0.071-2.556L35.331,32.853z M24.491,32.275c-2.142-2.163-2.142-5.674,0-7.851
		c2.139-2.163,5.608-2.163,7.723,0c2.141,2.15,2.158,5.699,0,7.851c-2.111,2.148-5.574,2.148-7.727,0H24.491z"/>
</g>
</svg>
