<?xml version="1.0" encoding="utf-8"?>
<!-- Generator: Adobe Illustrator 16.0.0, SVG Export Plug-In . SVG Version: 6.00 Build 0)  -->
<!DOCTYPE svg PUBLIC "-//W3C//DTD SVG 1.1//EN" "http://www.w3.org/Graphics/SVG/1.1/DTD/svg11.dtd">
<svg version="1.1" id="Layer_1" xmlns="http://www.w3.org/2000/svg" xmlns:xlink="http://www.w3.org/1999/xlink" x="0px" y="0px"
	 width="515.5px" height="39.5px" viewBox="0 0 515.5 39.5" enable-background="new 0 0 515.5 39.5" xml:space="preserve">
<g>
	<g>
		<g>
			<path fill="#FFFFFF" d="M22.112,19.1c-0.027-3.095,2.534-4.601,2.652-4.671c-1.451-2.116-3.7-2.404-4.491-2.428
				c-1.889-0.199-3.721,1.13-4.683,1.13c-0.981,0-2.463-1.111-4.06-1.079c-2.055,0.032-3.978,1.222-5.032,3.069
				c-2.176,3.767-0.553,9.304,1.532,12.35c1.042,1.49,2.261,3.155,3.856,3.096c1.561-0.062,2.143-0.993,4.026-0.993
				c1.866,0,2.413,0.993,4.04,0.956c1.675-0.025,2.729-1.497,3.736-3.002c1.205-1.709,1.689-3.394,1.708-3.479
				C25.357,24.035,22.145,22.809,22.112,19.1z"/>
			<path fill="#FFFFFF" d="M19.04,9.998c0.839-1.05,1.413-2.478,1.253-3.927c-1.215,0.054-2.733,0.84-3.608,1.867
				c-0.774,0.904-1.465,2.387-1.287,3.781C16.763,11.822,18.164,11.031,19.04,9.998z"/>
		</g>
	</g>
	<g>
		<path fill="#FFFFFF" d="M44.695,30.354h-2.181l-1.194-3.752h-4.152l-1.138,3.752h-2.123l4.113-12.778h2.541L44.695,30.354z
			 M40.959,25.025l-1.08-3.336c-0.114-0.342-0.329-1.146-0.645-2.408h-0.039c-0.125,0.543-0.328,1.346-0.606,2.408l-1.061,3.336
			H40.959z"/>
		<path fill="#FFFFFF" d="M55.274,25.633c0,1.568-0.423,2.807-1.271,3.715c-0.759,0.812-1.701,1.215-2.825,1.215
			c-1.214,0-2.085-0.436-2.617-1.309h-0.039v4.854h-2.047v-9.937c0-0.983-0.026-1.996-0.076-3.032h1.8l0.115,1.461h0.038
			c0.683-1.101,1.719-1.65,3.109-1.65c1.087,0,1.995,0.43,2.72,1.289C54.912,23.1,55.274,24.23,55.274,25.633z M53.189,25.708
			c0-0.896-0.202-1.636-0.607-2.219c-0.442-0.606-1.037-0.909-1.782-0.909c-0.505,0-0.964,0.168-1.374,0.502
			c-0.411,0.336-0.68,0.775-0.806,1.318c-0.063,0.254-0.095,0.461-0.095,0.623v1.537c0,0.67,0.206,1.235,0.617,1.697
			c0.411,0.463,0.945,0.692,1.602,0.692c0.771,0,1.372-0.3,1.8-0.892C52.974,27.465,53.189,26.682,53.189,25.708z"/>
		<path fill="#FFFFFF" d="M65.873,25.633c0,1.568-0.424,2.807-1.271,3.715c-0.758,0.812-1.699,1.215-2.825,1.215
			c-1.213,0-2.085-0.436-2.615-1.309h-0.039v4.854h-2.047v-9.937c0-0.983-0.026-1.996-0.076-3.032h1.8l0.114,1.461h0.039
			c0.682-1.101,1.718-1.65,3.109-1.65c1.086,0,1.994,0.43,2.721,1.289C65.509,23.1,65.873,24.23,65.873,25.633z M63.788,25.708
			c0-0.896-0.203-1.636-0.608-2.219c-0.442-0.606-1.035-0.909-1.782-0.909c-0.506,0-0.964,0.168-1.375,0.502
			c-0.411,0.336-0.679,0.775-0.805,1.318c-0.063,0.254-0.096,0.461-0.096,0.623v1.537c0,0.67,0.205,1.235,0.615,1.697
			c0.411,0.46,0.944,0.692,1.604,0.692c0.771,0,1.371-0.3,1.8-0.892C63.572,27.465,63.788,26.682,63.788,25.708z"/>
		<path fill="#FFFFFF" d="M77.723,26.77c0,1.088-0.377,1.974-1.135,2.654c-0.833,0.746-1.992,1.119-3.481,1.119
			c-1.376,0-2.478-0.266-3.312-0.796l0.475-1.706c0.898,0.543,1.885,0.816,2.959,0.816c0.771,0,1.371-0.176,1.803-0.523
			c0.429-0.348,0.643-0.814,0.643-1.396c0-0.519-0.176-0.955-0.531-1.31c-0.353-0.354-0.941-0.685-1.763-0.987
			c-2.238-0.834-3.355-2.058-3.355-3.664c0-1.052,0.392-1.914,1.176-2.583c0.782-0.671,1.825-1.006,3.128-1.006
			c1.163,0,2.129,0.203,2.899,0.607l-0.511,1.669c-0.72-0.392-1.535-0.588-2.447-0.588c-0.72,0-1.283,0.178-1.686,0.531
			c-0.34,0.315-0.511,0.701-0.511,1.158c0,0.504,0.194,0.924,0.586,1.252c0.341,0.303,0.96,0.631,1.859,0.985
			c1.1,0.442,1.906,0.96,2.426,1.554C77.464,25.146,77.723,25.887,77.723,26.77z"/>
		<path fill="#FFFFFF" d="M84.491,22.676h-2.256v4.475c0,1.138,0.397,1.705,1.195,1.705c0.366,0,0.669-0.03,0.91-0.094l0.056,1.553
			c-0.403,0.152-0.934,0.229-1.592,0.229c-0.808,0-1.44-0.247-1.896-0.738c-0.455-0.494-0.683-1.32-0.683-2.484v-4.646H78.88v-1.536
			h1.345V19.45l2.01-0.606v2.293h2.256V22.676z"/>
		<path fill="#FFFFFF" d="M94.673,25.67c0,1.416-0.405,2.58-1.214,3.488c-0.848,0.938-1.973,1.404-3.376,1.404
			c-1.352,0-2.429-0.449-3.231-1.347c-0.802-0.897-1.204-2.028-1.204-3.394c0-1.43,0.414-2.598,1.242-3.508
			c0.826-0.91,1.942-1.364,3.345-1.364c1.353,0,2.44,0.448,3.262,1.346C94.281,23.168,94.673,24.292,94.673,25.67z M92.548,25.736
			c0-0.851-0.181-1.578-0.548-2.187c-0.43-0.735-1.044-1.103-1.838-1.103c-0.822,0-1.449,0.367-1.877,1.103
			c-0.369,0.607-0.55,1.349-0.55,2.226c0,0.85,0.181,1.578,0.55,2.186c0.442,0.734,1.061,1.104,1.859,1.104
			c0.781,0,1.395-0.377,1.838-1.123C92.359,27.322,92.548,26.586,92.548,25.736z"/>
		<path fill="#FFFFFF" d="M101.328,22.939c-0.203-0.037-0.418-0.058-0.645-0.058c-0.72,0-1.277,0.271-1.669,0.816
			c-0.341,0.479-0.512,1.087-0.512,1.819v4.834h-2.046l0.019-6.312c0-1.062-0.025-2.029-0.077-2.899h1.784l0.075,1.762h0.056
			c0.216-0.605,0.557-1.094,1.024-1.459c0.456-0.33,0.949-0.494,1.48-0.494c0.189,0,0.36,0.014,0.512,0.037L101.328,22.939
			L101.328,22.939z"/>
		<path fill="#FFFFFF" d="M110.484,25.311c0,0.367-0.024,0.676-0.075,0.929h-6.143c0.024,0.911,0.321,1.606,0.891,2.088
			c0.518,0.429,1.187,0.644,2.009,0.644c0.909,0,1.74-0.145,2.485-0.436l0.321,1.421c-0.873,0.38-1.901,0.569-3.089,0.569
			c-1.429,0-2.551-0.422-3.367-1.262c-0.814-0.84-1.222-1.969-1.222-3.383c0-1.391,0.38-2.547,1.14-3.471
			c0.795-0.984,1.869-1.477,3.221-1.477c1.328,0,2.334,0.491,3.017,1.477C110.212,23.193,110.484,24.16,110.484,25.311z
			 M108.532,24.779c0.013-0.607-0.12-1.131-0.398-1.573c-0.354-0.57-0.898-0.854-1.631-0.854c-0.67,0-1.214,0.277-1.63,0.836
			c-0.34,0.441-0.543,0.974-0.606,1.592H108.532L108.532,24.779z"/>
	</g>
	<g>
		<g>
			<path fill="#FFFFFF" d="M40.282,9.712c0,1.131-0.339,1.981-1.016,2.553c-0.627,0.527-1.518,0.792-2.672,0.792
				c-0.573,0-1.062-0.025-1.472-0.075V6.806c0.535-0.086,1.111-0.13,1.733-0.13c1.1,0,1.928,0.239,2.487,0.717
				C39.969,7.934,40.282,8.707,40.282,9.712z M39.221,9.741c0-0.733-0.193-1.294-0.582-1.686c-0.388-0.391-0.954-0.587-1.701-0.587
				c-0.317,0-0.587,0.021-0.811,0.065v4.694c0.124,0.02,0.351,0.028,0.68,0.028c0.77,0,1.364-0.214,1.783-0.643
				C39.01,11.185,39.221,10.561,39.221,9.741z"/>
			<path fill="#FFFFFF" d="M45.499,10.523c0,0.18-0.013,0.333-0.037,0.456h-3.019c0.013,0.447,0.158,0.788,0.437,1.024
				c0.256,0.211,0.584,0.317,0.988,0.317c0.447,0,0.854-0.071,1.22-0.214l0.157,0.699c-0.428,0.187-0.934,0.28-1.518,0.28
				c-0.701,0-1.253-0.207-1.654-0.62c-0.401-0.413-0.6-0.967-0.6-1.662c0-0.683,0.185-1.251,0.559-1.705
				c0.391-0.484,0.918-0.726,1.583-0.726c0.652,0,1.146,0.242,1.481,0.726C45.364,9.483,45.499,9.959,45.499,10.523z M44.539,10.263
				c0.006-0.299-0.06-0.556-0.195-0.773c-0.174-0.28-0.44-0.419-0.801-0.419c-0.329,0-0.596,0.136-0.802,0.41
				c-0.167,0.218-0.266,0.479-0.298,0.783L44.539,10.263L44.539,10.263z"/>
			<path fill="#FFFFFF" d="M49.726,11.701c0,0.42-0.154,0.759-0.464,1.013c-0.31,0.255-0.74,0.382-1.286,0.382
				c-0.516,0-0.953-0.103-1.313-0.308l0.214-0.745c0.347,0.211,0.717,0.317,1.108,0.317c0.516,0,0.773-0.189,0.773-0.569
				c0-0.167-0.056-0.305-0.167-0.415c-0.112-0.108-0.311-0.216-0.596-0.32c-0.808-0.299-1.211-0.733-1.211-1.305
				c0-0.391,0.149-0.717,0.447-0.979c0.298-0.26,0.693-0.391,1.183-0.391c0.447,0,0.829,0.091,1.146,0.274l-0.214,0.722
				c-0.292-0.174-0.599-0.26-0.921-0.26c-0.211,0-0.377,0.05-0.495,0.148c-0.117,0.1-0.177,0.226-0.177,0.381
				s0.062,0.281,0.186,0.38c0.105,0.093,0.31,0.195,0.616,0.307C49.335,10.632,49.726,11.087,49.726,11.701z"/>
			<path fill="#FFFFFF" d="M54.459,8.595l-0.195,0.764c-0.255-0.124-0.546-0.187-0.875-0.187c-0.441,0-0.791,0.148-1.049,0.443
				c-0.258,0.294-0.386,0.669-0.386,1.122c0,0.479,0.136,0.856,0.405,1.136c0.27,0.28,0.614,0.42,1.03,0.42
				c0.31,0,0.614-0.062,0.912-0.187l0.141,0.755c-0.33,0.156-0.744,0.234-1.249,0.234c-0.689,0-1.239-0.21-1.649-0.629
				s-0.614-0.979-0.614-1.681c0-0.701,0.22-1.278,0.661-1.728c0.441-0.45,1.033-0.675,1.779-0.675
				C53.792,8.381,54.156,8.452,54.459,8.595z"/>
			<path fill="#FFFFFF" d="M59.228,13.001h-0.904l-0.075-0.521h-0.028c-0.31,0.416-0.75,0.624-1.322,0.624
				c-0.428,0-0.774-0.137-1.034-0.41c-0.236-0.248-0.353-0.556-0.353-0.922c0-0.553,0.23-0.974,0.694-1.267
				c0.462-0.292,1.113-0.435,1.952-0.428V9.992c0-0.596-0.313-0.894-0.939-0.894c-0.446,0-0.84,0.112-1.18,0.335l-0.204-0.661
				c0.42-0.26,0.94-0.391,1.552-0.391c1.184,0,1.776,0.624,1.776,1.873v1.667C59.162,12.374,59.185,12.733,59.228,13.001z
				 M58.184,11.445v-0.698c-1.11-0.02-1.666,0.285-1.666,0.912c0,0.236,0.064,0.413,0.194,0.531
				c0.129,0.118,0.293,0.177,0.491,0.177c0.222,0,0.427-0.07,0.616-0.209c0.189-0.139,0.305-0.318,0.348-0.536
				C58.178,11.573,58.184,11.513,58.184,11.445z M58.78,6.574l-1.127,1.35h-0.699l0.802-1.35H58.78z"/>
			<path fill="#FFFFFF" d="M63.316,9.359C63.217,9.34,63.112,9.332,63,9.332c-0.354,0-0.626,0.133-0.819,0.4
				c-0.167,0.236-0.252,0.534-0.252,0.894v2.376H60.92L60.93,9.9c0-0.521-0.011-0.997-0.035-1.425h0.873l0.037,0.866h0.028
				c0.104-0.299,0.273-0.538,0.502-0.717c0.225-0.162,0.467-0.242,0.728-0.242c0.093,0,0.177,0.006,0.252,0.019L63.316,9.359
				L63.316,9.359z"/>
			<path fill="#FFFFFF" d="M68.57,8.474c-0.026,0.367-0.038,0.795-0.038,1.286v2.589c0,0.975-0.217,1.658-0.652,2.049
				c-0.398,0.36-0.957,0.54-1.677,0.54c-0.626,0-1.133-0.118-1.518-0.354l0.233-0.773c0.379,0.23,0.806,0.345,1.285,0.345
				c0.889,0,1.332-0.478,1.332-1.434v-0.438h-0.019c-0.28,0.46-0.722,0.689-1.332,0.689c-0.545,0-0.996-0.207-1.35-0.624
				c-0.354-0.416-0.531-0.944-0.531-1.583c0-0.726,0.204-1.313,0.615-1.76c0.379-0.416,0.84-0.624,1.388-0.624
				c0.615,0,1.056,0.239,1.322,0.718h0.019l0.038-0.625L68.57,8.474L68.57,8.474z M67.525,11.064v-0.801
				c0-0.304-0.094-0.564-0.285-0.783c-0.189-0.218-0.441-0.325-0.752-0.325c-0.343,0-0.626,0.142-0.848,0.428
				c-0.221,0.286-0.332,0.667-0.332,1.146c0,0.435,0.102,0.786,0.309,1.053c0.212,0.292,0.502,0.438,0.87,0.438
				c0.222,0,0.426-0.066,0.602-0.2c0.179-0.134,0.306-0.315,0.38-0.545C67.506,11.362,67.525,11.224,67.525,11.064z"/>
			<path fill="#FFFFFF" d="M73.711,13.001h-0.904l-0.073-0.521h-0.028c-0.311,0.416-0.751,0.624-1.322,0.624
				c-0.429,0-0.775-0.137-1.035-0.41c-0.236-0.248-0.352-0.556-0.352-0.922c0-0.553,0.23-0.974,0.694-1.267
				c0.46-0.292,1.112-0.435,1.95-0.428V9.992c0-0.596-0.313-0.894-0.938-0.894c-0.446,0-0.84,0.112-1.181,0.335l-0.205-0.661
				c0.421-0.26,0.94-0.391,1.552-0.391c1.185,0,1.777,0.624,1.777,1.873v1.667C73.645,12.374,73.667,12.733,73.711,13.001z
				 M72.668,11.445v-0.698C71.556,10.728,71,11.032,71,11.659c0,0.236,0.066,0.413,0.195,0.531c0.129,0.118,0.292,0.177,0.489,0.177
				c0.223,0,0.428-0.07,0.617-0.209c0.188-0.14,0.304-0.318,0.347-0.536C72.662,11.573,72.668,11.513,72.668,11.445z"/>
			<path fill="#FFFFFF" d="M76.412,13.001h-1.005V6.397h1.005V13.001z"/>
			<path fill="#FFFFFF" d="M82.336,10.7c0,0.696-0.199,1.266-0.597,1.714c-0.417,0.46-0.97,0.689-1.658,0.689
				c-0.666,0-1.195-0.22-1.589-0.662c-0.394-0.441-0.591-0.997-0.591-1.667c0-0.701,0.203-1.276,0.61-1.723
				c0.408-0.446,0.955-0.67,1.644-0.67c0.665,0,1.198,0.22,1.604,0.661C82.143,9.471,82.336,10.024,82.336,10.7z M81.292,10.732
				c0-0.418-0.09-0.775-0.27-1.074c-0.21-0.361-0.512-0.542-0.901-0.542c-0.406,0-0.712,0.181-0.922,0.542
				c-0.181,0.299-0.271,0.663-0.271,1.092c0,0.418,0.091,0.776,0.271,1.075c0.217,0.361,0.521,0.542,0.912,0.542
				c0.385,0,0.685-0.183,0.902-0.551C81.2,11.511,81.292,11.15,81.292,10.732z"/>
			<path fill="#FFFFFF" d="M90.262,10.523c0,0.18-0.013,0.333-0.038,0.456h-3.018c0.013,0.447,0.157,0.788,0.437,1.024
				c0.255,0.211,0.585,0.317,0.988,0.317c0.446,0,0.854-0.071,1.22-0.214l0.157,0.699c-0.428,0.187-0.935,0.28-1.519,0.28
				c-0.701,0-1.253-0.207-1.652-0.62c-0.402-0.413-0.6-0.967-0.6-1.662c0-0.683,0.185-1.251,0.558-1.705
				c0.39-0.484,0.917-0.726,1.583-0.726c0.651,0,1.146,0.242,1.48,0.726C90.129,9.483,90.262,9.959,90.262,10.523z M89.302,10.263
				c0.008-0.299-0.058-0.556-0.195-0.773c-0.174-0.28-0.441-0.42-0.801-0.42c-0.329,0-0.597,0.136-0.801,0.41
				c-0.167,0.218-0.266,0.479-0.298,0.783H89.302z"/>
			<path fill="#FFFFFF" d="M95.654,13.001h-1.005v-2.593c0-0.799-0.304-1.199-0.913-1.199c-0.298,0-0.541,0.11-0.726,0.33
				c-0.185,0.22-0.279,0.479-0.279,0.775V13h-1.007V9.768c0-0.398-0.011-0.829-0.036-1.295h0.883l0.047,0.708h0.028
				c0.118-0.22,0.292-0.401,0.521-0.547c0.274-0.169,0.578-0.254,0.913-0.254c0.422,0,0.773,0.137,1.052,0.41
				c0.349,0.335,0.521,0.835,0.521,1.5L95.654,13.001L95.654,13.001z"/>
			<path fill="#FFFFFF" d="M103.871,10.523c0,0.18-0.013,0.333-0.038,0.456h-3.018c0.011,0.447,0.157,0.788,0.437,1.024
				c0.255,0.211,0.583,0.317,0.986,0.317c0.448,0,0.855-0.071,1.22-0.214l0.157,0.699c-0.427,0.187-0.934,0.28-1.517,0.28
				c-0.701,0-1.253-0.207-1.654-0.62c-0.399-0.413-0.6-0.967-0.6-1.662c0-0.683,0.185-1.251,0.559-1.705
				c0.391-0.484,0.919-0.726,1.582-0.726c0.653,0,1.146,0.242,1.482,0.726C103.736,9.483,103.871,9.959,103.871,10.523z
				 M102.911,10.263c0.006-0.299-0.059-0.556-0.195-0.773c-0.175-0.279-0.441-0.419-0.801-0.419c-0.33,0-0.596,0.136-0.803,0.41
				c-0.167,0.218-0.265,0.479-0.296,0.783L102.911,10.263L102.911,10.263z"/>
			<path fill="#FFFFFF" d="M106.339,13.001h-1.007V6.397h1.007V13.001z"/>
		</g>
	</g>
</g>
<g>
	<g>
		<g>
			<path fill="#FFFFFF" d="M255.168,26.854l-0.795,0.75c-0.183,0.102-0.366,0.219-0.549,0.303c-0.552,0.251-1.114,0.312-1.613,0.312
				c-0.531,0-1.364-0.033-2.214-0.648c-1.18-0.83-1.696-2.26-1.696-3.504c0-2.578,2.098-3.844,3.811-3.844
				c0.598,0,1.213,0.149,1.712,0.467c0.831,0.549,1.046,1.264,1.166,1.646l-3.91,1.579l-1.28,0.1
				c0.415,2.113,1.845,3.344,3.424,3.344c0.79,0,1.375-0.258,1.913-0.522C255.138,26.834,255.246,26.777,255.168,26.854z
				 M252.81,22.65c0.318-0.116,0.483-0.217,0.483-0.447c0-0.664-0.752-1.432-1.648-1.432c-0.665,0-1.912,0.518-1.912,2.313
				c0,0.28,0.033,0.578,0.05,0.877L252.81,22.65z"/>
			<path fill="#FFFFFF" d="M246.996,26.727c0,0.646,0.115,0.746,0.661,0.797c0.285,0.033,0.569,0.049,0.85,0.082l-0.615,0.365h-2.93
				c0.384-0.498,0.45-0.548,0.45-0.881v-0.371l-0.006-9.886h-1.294l1.245-0.6h2.378c-0.516,0.298-0.67,0.48-0.736,1.062
				L246.996,26.727z"/>
			<path fill="#FFFFFF" d="M242.451,21.039c0.382,0.314,1.179,0.98,1.179,2.244c0,1.23-0.694,1.812-1.395,2.361
				c-0.214,0.215-0.465,0.451-0.465,0.812c0,0.367,0.251,0.566,0.432,0.716l0.601,0.464c0.73,0.616,1.396,1.184,1.396,2.329
				c0,1.563-1.514,3.142-4.374,3.142c-2.41,0-3.574-1.146-3.574-2.377c0-0.6,0.298-1.447,1.281-2.027
				c1.031-0.631,2.428-0.715,3.175-0.764c-0.233-0.303-0.5-0.617-0.5-1.133c0-0.281,0.084-0.449,0.166-0.648
				c-0.182,0.018-0.365,0.035-0.532,0.035c-1.763,0-2.76-1.315-2.76-2.611c0-0.766,0.349-1.613,1.065-2.229
				c0.948-0.781,2.078-0.916,2.977-0.916h3.427l-1.066,0.602H242.451z M241.272,28.421c-0.136-0.019-0.218-0.019-0.382-0.019
				c-0.151,0-1.049,0.033-1.745,0.268c-0.368,0.135-1.432,0.531-1.432,1.713c0,1.18,1.148,2.028,2.926,2.028
				c1.596,0,2.444-0.765,2.444-1.796C243.083,29.768,242.535,29.32,241.272,28.421z M241.751,25.262
				c0.384-0.384,0.417-0.914,0.417-1.215c0-1.195-0.713-3.059-2.095-3.059c-0.432,0-0.898,0.217-1.164,0.551
				c-0.281,0.347-0.365,0.796-0.365,1.229c0,1.113,0.649,2.961,2.078,2.961C241.039,25.729,241.488,25.525,241.751,25.262z"/>
			<path fill="#FFFFFF" d="M232.142,28.186c-2.643,0-4.057-2.059-4.057-3.922c0-2.177,1.777-4.039,4.307-4.039
				c2.444,0,3.976,1.912,3.976,3.922C236.367,26.109,234.854,28.186,232.142,28.186z M234.221,26.84
				c0.402-0.531,0.5-1.195,0.5-1.844c0-1.464-0.698-4.257-2.76-4.257c-0.548,0-1.101,0.214-1.499,0.563
				c-0.649,0.582-0.765,1.313-0.765,2.03c0,1.644,0.812,4.353,2.827,4.353C233.175,27.686,233.838,27.371,234.221,26.84z"/>
			<path fill="#FFFFFF" d="M223.293,28.186c-2.644,0-4.056-2.059-4.056-3.922c0-2.177,1.779-4.039,4.307-4.039
				c2.442,0,3.972,1.912,3.972,3.922C227.516,26.109,226.005,28.186,223.293,28.186z M225.373,26.84
				c0.399-0.531,0.499-1.195,0.499-1.844c0-1.464-0.7-4.257-2.76-4.257c-0.55,0-1.097,0.214-1.496,0.563
				c-0.651,0.582-0.766,1.313-0.766,2.03c0,1.644,0.815,4.353,2.827,4.353C224.326,27.686,224.989,27.371,225.373,26.84z"/>
			<path fill="#FFFFFF" d="M218.181,27.609l-2.229,0.51c-0.903,0.143-1.714,0.268-2.573,0.268c-4.3,0-5.938-3.164-5.938-5.642
				c0-3.024,2.321-5.83,6.296-5.83c0.841,0,1.65,0.124,2.388,0.324c1.168,0.329,1.714,0.733,2.056,0.97l-1.294,1.229l-0.546,0.123
				l0.389-0.621c-0.527-0.516-1.497-1.465-3.335-1.465c-2.459,0-4.315,1.871-4.315,4.598c0,2.932,2.119,5.688,5.516,5.688
				c0.999,0,1.512-0.201,1.979-0.389v-2.512l-2.354,0.125l1.248-0.67h3.303l-0.404,0.39c-0.109,0.093-0.124,0.124-0.155,0.248
				c-0.016,0.142-0.031,0.593-0.031,0.753L218.181,27.609L218.181,27.609z"/>
		</g>
		<g>
			<path fill="#FFFFFF" d="M259.962,26.926v4.234h-0.842V20.384h0.842v1.228c0.547-0.793,1.548-1.422,2.712-1.422
				c2.085,0,3.49,1.582,3.49,4.086c0,2.488-1.405,4.104-3.49,4.104C261.575,28.379,260.592,27.812,259.962,26.926z M265.261,24.275
				c0-1.887-0.983-3.327-2.729-3.327c-1.083,0-2.119,0.852-2.569,1.595v3.449c0.45,0.744,1.486,1.627,2.569,1.627
				C264.275,27.619,265.261,26.166,265.261,24.275z"/>
			<path fill="#FFFFFF" d="M267.312,28.186V17.408h0.84v10.775h-0.84V28.186z"/>
			<path fill="#FFFFFF" d="M277.592,30.464c0.18,0.08,0.486,0.13,0.682,0.13c0.515,0,0.873-0.211,1.193-0.953l0.613-1.391
				l-3.312-7.866h0.938l2.843,6.816l2.814-6.816h0.951l-4.041,9.517c-0.42,0.98-1.08,1.453-1.985,1.453
				c-0.272,0-0.631-0.049-0.841-0.113L277.592,30.464z"/>
			<path fill="#FFFFFF" d="M275.135,28.161c-0.057-0.271-0.099-0.509-0.13-0.708c-0.026-0.198-0.04-0.401-0.04-0.607
				c-0.289,0.424-0.697,0.775-1.219,1.053c-0.521,0.279-1.02,0.416-1.699,0.416c-0.82,0-1.456-0.2-1.908-0.609
				c-0.453-0.408-0.682-0.962-0.682-1.662c0-0.699,0.33-1.268,0.986-1.7c0.658-0.437,1.508-0.651,2.559-0.651h1.963v-0.971
				c0-0.56-0.191-0.996-0.57-1.316c-0.381-0.317-0.916-0.479-1.609-0.479c-0.635,0-1.148,0.147-1.541,0.434
				c-0.389,0.293-0.583,0.656-0.583,1.094H269.8l-0.018-0.042c-0.031-0.589,0.237-1.104,0.812-1.554
				c0.57-0.444,1.317-0.67,2.238-0.67c0.916,0,1.658,0.222,2.218,0.662c0.56,0.437,0.841,1.065,0.841,1.889v3.851
				c0,0.274,0.012,0.543,0.047,0.804c0.035,0.262,0.093,0.521,0.168,0.771h-0.971V28.161z M272.148,27.549
				c0.715,0,1.229-0.16,1.754-0.476c0.521-0.313,0.875-0.724,1.062-1.22v-1.498h-1.972c-0.753,0-1.376,0.166-1.866,0.504
				c-0.491,0.334-0.739,0.74-0.739,1.211c0,0.445,0.156,0.801,0.471,1.07C271.172,27.414,271.604,27.549,272.148,27.549z"/>
		</g>
	</g>
	<g>
		<polygon fill="none" points="196.458,23.836 199.156,21.139 199.155,21.139 196.458,23.836 187.846,15.226 187.845,15.226 
			196.458,23.838 187.832,32.464 187.832,32.464 196.458,23.838 199.167,26.548 199.169,26.548 		"/>
		
			<linearGradient id="SVGID_1_" gradientUnits="userSpaceOnUse" x1="996.7695" y1="464.4326" x2="985.4" y2="471.5482" gradientTransform="matrix(0.7071 0.7071 0.7071 -0.7071 -838.5737 -353.2706)">
			<stop  offset="0" style="stop-color:#D6FFA1"/>
			<stop  offset="0.3264" style="stop-color:#93E2A7"/>
			<stop  offset="1" style="stop-color:#00A3B5"/>
		</linearGradient>
		<path fill="url(#SVGID_1_)" d="M199.155,21.139l-10.514-5.781c-0.298-0.163-0.573-0.201-0.796-0.132l8.612,8.61L199.155,21.139z"
			/>
		
			<linearGradient id="SVGID_2_" gradientUnits="userSpaceOnUse" x1="990.1562" y1="470.5117" x2="1004.9016" y2="466.6571" gradientTransform="matrix(0.7071 0.7071 0.7071 -0.7071 -838.5737 -353.2706)">
			<stop  offset="0" style="stop-color:#FF177B"/>
			<stop  offset="0.6721" style="stop-color:#FFA976"/>
			<stop  offset="1" style="stop-color:#FFEC73"/>
		</linearGradient>
		<path fill="url(#SVGID_2_)" d="M199.169,26.548l3.589-1.974c0.728-0.401,0.728-1.055,0-1.455l-3.602-1.98l-2.698,2.697
			L199.169,26.548z"/>
		
			<linearGradient id="SVGID_3_" gradientUnits="userSpaceOnUse" x1="998.3877" y1="459.0361" x2="982.4014" y2="468.4416" gradientTransform="matrix(0.7071 0.7071 0.7071 -0.7071 -838.5737 -353.2706)">
			<stop  offset="0" style="stop-color:#63FFD4"/>
			<stop  offset="0.4854" style="stop-color:#32A0BA"/>
			<stop  offset="0.8349" style="stop-color:#1262A9"/>
			<stop  offset="1" style="stop-color:#064AA2"/>
		</linearGradient>
		<path fill="url(#SVGID_3_)" d="M187.845,15.226c-0.32,0.1-0.527,0.424-0.527,0.914l0.002,15.415c0,0.483,0.201,0.803,0.511,0.909
			l8.626-8.626L187.845,15.226z"/>
		
			<linearGradient id="SVGID_4_" gradientUnits="userSpaceOnUse" x1="1004.1914" y1="466.501" x2="994.35" y2="453.5354" gradientTransform="matrix(0.7071 0.7071 0.7071 -0.7071 -838.5737 -353.2706)">
			<stop  offset="0" style="stop-color:#FF4521"/>
			<stop  offset="0.3411" style="stop-color:#D43E65"/>
			<stop  offset="0.7935" style="stop-color:#9F36B9"/>
			<stop  offset="1" style="stop-color:#8A33DB"/>
		</linearGradient>
		<path fill="url(#SVGID_4_)" d="M187.832,32.464c0.224,0.075,0.505,0.04,0.81-0.128l10.526-5.788l-2.71-2.71L187.832,32.464z"/>
	</g>
	<g>
		<g>
			<path fill="#FFFFFF" d="M207.444,11.194V5.933h1.957c1.648,0,2.752,1.088,2.752,2.627c0,1.553-1.104,2.634-2.745,2.634H207.444z
				 M211.207,8.56c0-1.01-0.631-1.814-1.798-1.814h-1.041v3.636h1.034C210.544,10.382,211.207,9.562,211.207,8.56z"/>
			<path fill="#FFFFFF" d="M213.24,11.194V5.933h0.922v5.261H213.24z"/>
			<path fill="#FFFFFF" d="M215.139,10.453l0.521-0.717c0.355,0.386,0.931,0.733,1.665,0.733c0.757,0,1.049-0.371,1.049-0.725
				c0-1.104-3.06-0.418-3.06-2.351c0-0.875,0.757-1.546,1.916-1.546c0.813,0,1.483,0.268,1.964,0.742l-0.521,0.686
				c-0.418-0.418-0.978-0.607-1.53-0.607c-0.536,0-0.883,0.268-0.883,0.655c0,0.986,3.06,0.378,3.06,2.334
				c0,0.875-0.623,1.632-2.035,1.632C216.314,11.289,215.612,10.941,215.139,10.453z"/>
			<path fill="#FFFFFF" d="M220.358,11.194V5.933h2.319c1.104,0,1.711,0.75,1.711,1.649c0,0.891-0.615,1.64-1.711,1.64h-1.396v1.972
				H220.358z M223.442,7.582c0-0.505-0.371-0.836-0.891-0.836h-1.27V8.41h1.27C223.071,8.41,223.442,8.079,223.442,7.582z"/>
			<path fill="#FFFFFF" d="M225.127,8.568c0-1.57,1.112-2.721,2.69-2.721c1.569,0,2.689,1.151,2.689,2.721
				c0,1.57-1.121,2.721-2.689,2.721C226.24,11.289,225.127,10.138,225.127,8.568z M229.56,8.568c0-1.088-0.686-1.901-1.743-1.901
				c-1.065,0-1.744,0.812-1.744,1.901c0,1.08,0.679,1.9,1.744,1.9C228.874,10.468,229.56,9.648,229.56,8.568z"/>
			<path fill="#FFFFFF" d="M235.252,11.194l-2.745-3.762v3.762h-0.922V5.933h0.947l2.689,3.644V5.933h0.923v5.261H235.252z"/>
			<path fill="#FFFFFF" d="M237.458,11.194V5.933h0.922v5.261H237.458z"/>
			<path fill="#FFFFFF" d="M239.696,11.194V5.933h2.587c0.97,0,1.498,0.6,1.498,1.341c0,0.654-0.426,1.104-0.914,1.207
				c0.567,0.087,1.017,0.647,1.017,1.286c0,0.82-0.536,1.428-1.53,1.428L239.696,11.194L239.696,11.194z M242.835,7.424
				c0-0.386-0.268-0.678-0.733-0.678h-1.483v1.356h1.483C242.567,8.103,242.835,7.826,242.835,7.424z M242.938,9.648
				c0-0.394-0.275-0.733-0.796-0.733h-1.522v1.467h1.522C242.639,10.382,242.938,10.105,242.938,9.648z"/>
			<path fill="#FFFFFF" d="M244.947,11.194V5.933h0.922v4.449h2.319v0.812H244.947z"/>
			<path fill="#FFFFFF" d="M249.196,11.194V5.933h3.604v0.813h-2.682v1.356h2.627v0.812h-2.627v1.467h2.682v0.812L249.196,11.194
				L249.196,11.194z"/>
			<path fill="#FFFFFF" d="M256.174,11.194V5.933h3.604v0.813h-2.681v1.356h2.626v0.812h-2.626v1.467h2.681v0.812L256.174,11.194
				L256.174,11.194z"/>
			<path fill="#FFFFFF" d="M264.586,11.194l-2.744-3.762v3.762h-0.923V5.933h0.946l2.689,3.644V5.933h0.922v5.261H264.586z"/>
		</g>
	</g>
</g>
<path fill="#FFFFFF" d="M401.521,9.899c0.043,0.196,0.068,0.435,0.072,0.716c-1.006,0.434-1.394,0.746-1.376,2.236v0.913
	l-0.688,0.139v-1.058C399.529,10.65,400.37,10.303,401.521,9.899 M403.523,9.429c0.047,0.212,0.082,0.445,0.106,0.692
	c1.802-0.259,1.767,0.485,1.767,2.035v0.573l0.683-0.14v-0.433C406.079,9.749,405.703,9.103,403.523,9.429 M396.428,14.524v-3.167
	c-0.021-1.963,0.99-2.564,2.861-3.003c2.818-0.661,2.998,1.156,2.998,2.313v2.685l0.689-0.139v-2.486
	c-0.008-2.188-0.688-3.827-3.824-3.116c-1.69,0.383-3.416,0.814-3.416,3.681v3.37L396.428,14.524z M404.684,22.85h-5.305v-3.837
	l5.305-0.777V22.85z M404.684,28.273l-5.305-0.775v-4.119h5.305V28.273z M398.852,22.85h-4.207v-3.212l4.207-0.594V22.85z
	 M398.852,27.465l-4.207-0.594v-3.492h4.207V27.465z M409.527,12.736l-18.961,3.792v13.791l18.961,3.791l3.791-1.379V14.115
	L409.527,12.736z"/>
<g>
	<path fill="#FFFFFF" d="M419.901,10.916c0.534-0.081,1.169-0.141,1.865-0.141c1.259,0,2.156,0.292,2.751,0.846
		c0.604,0.554,0.957,1.341,0.957,2.438c0,1.109-0.342,2.016-0.978,2.641c-0.636,0.635-1.683,0.978-3.004,0.978
		c-0.624,0-1.147-0.03-1.592-0.081V10.916z M420.779,16.922c0.221,0.04,0.543,0.05,0.886,0.05c1.875,0,2.893-1.048,2.893-2.882
		c0.01-1.603-0.897-2.621-2.752-2.621c-0.453,0-0.796,0.042-1.026,0.091V16.922z"/>
	<path fill="#FFFFFF" d="M427.094,15.34c0.02,1.199,0.786,1.693,1.674,1.693c0.635,0,1.018-0.111,1.349-0.252l0.153,0.635
		c-0.313,0.141-0.848,0.303-1.624,0.303c-1.502,0-2.399-0.988-2.399-2.459c0-1.471,0.867-2.63,2.289-2.63
		c1.592,0,2.017,1.401,2.017,2.297c0,0.182-0.021,0.323-0.031,0.414H427.094z M429.694,14.705c0.01-0.565-0.232-1.441-1.23-1.441
		c-0.896,0-1.29,0.827-1.359,1.441H429.694z"/>
	<path fill="#FFFFFF" d="M431.448,16.71c0.263,0.171,0.727,0.353,1.171,0.353c0.644,0,0.947-0.323,0.947-0.726
		c0-0.423-0.253-0.655-0.908-0.897c-0.877-0.312-1.289-0.795-1.289-1.381c0-0.786,0.635-1.431,1.684-1.431
		c0.492,0,0.926,0.141,1.199,0.303l-0.224,0.645c-0.19-0.121-0.543-0.282-0.997-0.282c-0.523,0-0.815,0.302-0.815,0.665
		c0,0.404,0.292,0.585,0.927,0.826c0.847,0.323,1.28,0.746,1.28,1.472c0,0.856-0.666,1.461-1.825,1.461
		c-0.534,0-1.027-0.13-1.37-0.333L431.448,16.71z"/>
	<path fill="#FFFFFF" d="M439.004,17.436c-0.23,0.121-0.745,0.282-1.4,0.282c-1.471,0-2.428-0.999-2.428-2.489
		c0-1.502,1.028-2.59,2.62-2.59c0.523,0,0.987,0.13,1.229,0.252l-0.202,0.685c-0.212-0.121-0.544-0.231-1.027-0.231
		c-1.119,0-1.724,0.827-1.724,1.844c0,1.128,0.725,1.824,1.693,1.824c0.503,0,0.836-0.131,1.088-0.242L439.004,17.436z"/>
	<path fill="#FFFFFF" d="M442.73,17.617l-0.071-0.615h-0.029c-0.272,0.383-0.796,0.727-1.492,0.727c-0.987,0-1.49-0.696-1.49-1.402
		c0-1.178,1.048-1.823,2.933-1.814v-0.1c0-0.404-0.111-1.129-1.109-1.129c-0.453,0-0.928,0.141-1.27,0.363L440,13.062
		c0.402-0.262,0.987-0.434,1.602-0.434c1.491,0,1.854,1.018,1.854,1.996v1.824c0,0.423,0.021,0.836,0.082,1.169H442.73z
		 M442.6,15.128c-0.968-0.02-2.066,0.152-2.066,1.099c0,0.575,0.384,0.847,0.837,0.847c0.635,0,1.038-0.402,1.179-0.816
		c0.031-0.091,0.051-0.191,0.051-0.282V15.128z"/>
	<path fill="#FFFFFF" d="M444.799,14.262c0-0.575-0.009-1.068-0.039-1.522h0.774l0.031,0.958h0.039
		c0.223-0.655,0.757-1.068,1.351-1.068c0.103,0,0.172,0.01,0.253,0.03v0.836c-0.092-0.02-0.182-0.03-0.302-0.03
		c-0.626,0-1.069,0.474-1.19,1.138c-0.02,0.122-0.039,0.263-0.039,0.414v2.6h-0.878V14.262z"/>
	<path fill="#FFFFFF" d="M452.21,12.74c-0.02,0.353-0.04,0.746-0.04,1.341v2.831c0,1.119-0.223,1.804-0.695,2.228
		c-0.475,0.443-1.159,0.584-1.773,0.584c-0.584,0-1.229-0.141-1.623-0.403l0.223-0.674c0.321,0.201,0.825,0.382,1.43,0.382
		c0.907,0,1.573-0.473,1.573-1.703v-0.544h-0.021c-0.271,0.454-0.795,0.816-1.552,0.816c-1.209,0-2.075-1.028-2.075-2.378
		c0-1.652,1.079-2.59,2.197-2.59c0.846,0,1.31,0.444,1.521,0.847h0.021l0.04-0.736H452.21z M451.293,14.665
		c0-0.151-0.011-0.282-0.05-0.403c-0.162-0.514-0.596-0.938-1.24-0.938c-0.847,0-1.45,0.716-1.45,1.844
		c0,0.957,0.483,1.754,1.439,1.754c0.545,0,1.039-0.342,1.23-0.907c0.05-0.151,0.07-0.322,0.07-0.474V14.665z"/>
	<path fill="#FFFFFF" d="M456.261,17.617l-0.07-0.615h-0.03c-0.271,0.383-0.797,0.727-1.492,0.727c-0.987,0-1.491-0.696-1.491-1.402
		c0-1.178,1.049-1.823,2.933-1.814v-0.1c0-0.404-0.111-1.129-1.108-1.129c-0.454,0-0.927,0.141-1.271,0.363l-0.201-0.584
		c0.403-0.262,0.987-0.434,1.603-0.434c1.492,0,1.855,1.018,1.855,1.996v1.824c0,0.423,0.02,0.836,0.079,1.169H456.261z
		 M456.129,15.128c-0.967-0.02-2.065,0.152-2.065,1.099c0,0.575,0.383,0.847,0.836,0.847c0.635,0,1.039-0.402,1.18-0.816
		c0.03-0.091,0.05-0.191,0.05-0.282V15.128z"/>
	<path fill="#FFFFFF" d="M464.763,10.462v5.895c0,0.434,0.01,0.927,0.04,1.26h-0.796l-0.04-0.846h-0.02
		c-0.273,0.544-0.867,0.958-1.663,0.958c-1.18,0-2.087-0.999-2.087-2.48c-0.01-1.622,0.998-2.62,2.187-2.62
		c0.746,0,1.251,0.353,1.472,0.746h0.02v-2.912H464.763z M463.875,14.725c0-0.111-0.01-0.262-0.039-0.373
		c-0.132-0.564-0.615-1.028-1.28-1.028c-0.917,0-1.461,0.807-1.461,1.884c0,0.988,0.483,1.804,1.441,1.804
		c0.594,0,1.138-0.393,1.3-1.058c0.029-0.121,0.039-0.242,0.039-0.383V14.725z"/>
	<path fill="#FFFFFF" d="M466.688,15.34c0.02,1.199,0.786,1.693,1.672,1.693c0.635,0,1.018-0.111,1.351-0.252l0.151,0.635
		c-0.312,0.141-0.846,0.303-1.622,0.303c-1.502,0-2.398-0.988-2.398-2.459c0-1.471,0.866-2.63,2.288-2.63
		c1.592,0,2.015,1.401,2.015,2.297c0,0.182-0.021,0.323-0.029,0.414H466.688z M469.287,14.705c0.011-0.565-0.231-1.441-1.229-1.441
		c-0.897,0-1.29,0.827-1.36,1.441H469.287z"/>
	<path fill="#FFFFFF" d="M473.376,10.462h0.886v7.155h-0.886V10.462z"/>
	<path fill="#FFFFFF" d="M478.365,17.617l-0.069-0.615h-0.031c-0.271,0.383-0.795,0.727-1.49,0.727
		c-0.988,0-1.491-0.696-1.491-1.402c0-1.178,1.047-1.823,2.932-1.814v-0.1c0-0.404-0.11-1.129-1.107-1.129
		c-0.453,0-0.928,0.141-1.27,0.363l-0.202-0.584c0.403-0.262,0.987-0.434,1.603-0.434c1.49,0,1.854,1.018,1.854,1.996v1.824
		c0,0.423,0.021,0.836,0.081,1.169H478.365z M478.235,15.128c-0.967-0.02-2.065,0.152-2.065,1.099c0,0.575,0.383,0.847,0.836,0.847
		c0.635,0,1.038-0.402,1.18-0.816c0.029-0.091,0.05-0.191,0.05-0.282V15.128z"/>
	<path fill="#FFFFFF" d="M421.816,23.749h-2.693v-0.972h6.556v0.972h-2.706v7.884h-1.156V23.749z"/>
	<path fill="#FFFFFF" d="M427.987,23.486c0.013,0.395-0.276,0.71-0.735,0.71c-0.408,0-0.697-0.315-0.697-0.71
		c0-0.407,0.304-0.723,0.725-0.723C427.711,22.764,427.987,23.079,427.987,23.486z M426.699,31.633v-6.359h1.158v6.359H426.699z"/>
	<path fill="#FFFFFF" d="M430.316,28.664c0.025,1.562,1.024,2.206,2.181,2.206c0.828,0,1.328-0.145,1.762-0.328l0.196,0.827
		c-0.407,0.185-1.104,0.395-2.115,0.395c-1.959,0-3.126-1.287-3.126-3.205c0-1.92,1.128-3.43,2.981-3.43
		c2.076,0,2.628,1.826,2.628,2.996c0,0.236-0.025,0.42-0.04,0.539H430.316z M433.706,27.836c0.014-0.736-0.302-1.879-1.603-1.879
		c-1.169,0-1.683,1.076-1.774,1.879H433.706z"/>
	<path fill="#FFFFFF" d="M436.154,26.994c0-0.656-0.013-1.195-0.053-1.721h1.024l0.066,1.051h0.025
		c0.315-0.604,1.051-1.195,2.103-1.195c0.881,0,2.246,0.525,2.246,2.707v3.797h-1.156v-3.666c0-1.025-0.38-1.879-1.471-1.879
		c-0.762,0-1.354,0.539-1.551,1.183c-0.053,0.145-0.078,0.341-0.078,0.538v3.824h-1.156V26.994z"/>
	<path fill="#FFFFFF" d="M448.852,22.304v7.687c0,0.564,0.013,1.209,0.053,1.643h-1.039l-0.052-1.104h-0.026
		c-0.355,0.71-1.13,1.249-2.167,1.249c-1.538,0-2.72-1.301-2.72-3.232c-0.014-2.115,1.3-3.416,2.851-3.416
		c0.972,0,1.629,0.461,1.918,0.973h0.026v-3.798H448.852z M447.695,27.861c0-0.145-0.014-0.341-0.053-0.485
		c-0.172-0.737-0.802-1.341-1.669-1.341c-1.195,0-1.904,1.051-1.904,2.457c0,1.287,0.63,2.352,1.879,2.352
		c0.774,0,1.483-0.512,1.694-1.379c0.039-0.158,0.053-0.316,0.053-0.5V27.861z"/>
	<path fill="#FFFFFF" d="M454.15,31.633l-0.093-0.802h-0.039c-0.355,0.499-1.037,0.946-1.944,0.946
		c-1.288,0-1.944-0.907-1.944-1.827c0-1.536,1.366-2.378,3.822-2.364v-0.131c0-0.527-0.145-1.473-1.445-1.473
		c-0.59,0-1.207,0.184-1.653,0.473l-0.264-0.762c0.525-0.342,1.288-0.564,2.089-0.564c1.944,0,2.418,1.326,2.418,2.602v2.378
		c0,0.552,0.026,1.091,0.104,1.524H454.15z M453.979,28.387c-1.262-0.025-2.693,0.198-2.693,1.432c0,0.75,0.499,1.104,1.091,1.104
		c0.826,0,1.353-0.525,1.536-1.064c0.039-0.118,0.066-0.249,0.066-0.368V28.387z"/>
	<path fill="#FFFFFF" d="M461.233,31.633l-2.247-8.855h1.208l1.052,4.479c0.262,1.104,0.499,2.208,0.656,3.062h0.026
		c0.146-0.881,0.421-1.932,0.722-3.074l1.184-4.467h1.195l1.078,4.493c0.249,1.051,0.485,2.102,0.617,3.034h0.026
		c0.185-0.972,0.434-1.957,0.709-3.061l1.169-4.467h1.169l-2.509,8.855h-1.194l-1.117-4.612c-0.277-1.13-0.46-1.997-0.578-2.89
		h-0.028c-0.157,0.879-0.354,1.748-0.682,2.89l-1.261,4.612H461.233z"/>
	<path fill="#FFFFFF" d="M471.901,23.486c0.013,0.395-0.276,0.71-0.736,0.71c-0.407,0-0.696-0.315-0.696-0.71
		c0-0.407,0.302-0.723,0.723-0.723C471.625,22.764,471.901,23.079,471.901,23.486z M470.613,31.633v-6.359h1.156v6.359H470.613z"/>
	<path fill="#FFFFFF" d="M473.215,26.994c0-0.656-0.014-1.195-0.053-1.721h1.024l0.066,1.051h0.026
		c0.314-0.604,1.05-1.195,2.102-1.195c0.881,0,2.247,0.525,2.247,2.707v3.797h-1.156v-3.666c0-1.025-0.38-1.879-1.472-1.879
		c-0.763,0-1.354,0.539-1.55,1.183c-0.053,0.145-0.079,0.341-0.079,0.538v3.824h-1.156V26.994z"/>
	<path fill="#FFFFFF" d="M485.912,22.304v7.687c0,0.564,0.014,1.209,0.053,1.643h-1.038l-0.053-1.104h-0.025
		c-0.356,0.71-1.132,1.249-2.169,1.249c-1.536,0-2.72-1.301-2.72-3.232c-0.013-2.115,1.301-3.416,2.851-3.416
		c0.973,0,1.63,0.461,1.919,0.973h0.026v-3.798H485.912z M484.756,27.861c0-0.145-0.014-0.341-0.054-0.485
		c-0.171-0.737-0.8-1.341-1.667-1.341c-1.195,0-1.906,1.051-1.906,2.457c0,1.287,0.632,2.352,1.88,2.352
		c0.774,0,1.483-0.512,1.693-1.379c0.04-0.158,0.054-0.316,0.054-0.5V27.861z"/>
	<path fill="#FFFFFF" d="M493.19,28.4c0,2.352-1.628,3.377-3.166,3.377c-1.721,0-3.048-1.262-3.048-3.272
		c0-2.128,1.393-3.376,3.152-3.376C491.956,25.129,493.19,26.455,493.19,28.4z M488.145,28.466c0,1.393,0.803,2.444,1.932,2.444
		c1.104,0,1.933-1.039,1.933-2.471c0-1.078-0.539-2.443-1.906-2.443C488.737,25.996,488.145,27.257,488.145,28.466z"/>
	<path fill="#FFFFFF" d="M494.675,25.273l0.842,3.231c0.183,0.71,0.354,1.366,0.472,2.023h0.041
		c0.145-0.644,0.354-1.326,0.565-2.009l1.037-3.246h0.973l0.983,3.18c0.237,0.762,0.421,1.432,0.566,2.075h0.039
		c0.105-0.644,0.276-1.313,0.486-2.062l0.907-3.192h1.144l-2.051,6.359h-1.051l-0.973-3.035c-0.223-0.709-0.407-1.341-0.564-2.09
		h-0.026c-0.158,0.763-0.355,1.42-0.578,2.103l-1.024,3.022h-1.053l-1.917-6.359H494.675z"/>
	<path fill="#FFFFFF" d="M503.592,30.449c0.342,0.225,0.945,0.461,1.523,0.461c0.841,0,1.236-0.421,1.236-0.946
		c0-0.552-0.328-0.854-1.183-1.17c-1.144-0.407-1.683-1.037-1.683-1.8c0-1.024,0.828-1.865,2.195-1.865
		c0.643,0,1.208,0.184,1.562,0.395l-0.289,0.84c-0.249-0.156-0.71-0.367-1.299-0.367c-0.686,0-1.065,0.395-1.065,0.867
		c0,0.525,0.38,0.762,1.208,1.077c1.104,0.421,1.669,0.973,1.669,1.918c0,1.117-0.867,1.905-2.378,1.905
		c-0.697,0-1.341-0.171-1.787-0.434L503.592,30.449z"/>
</g>
</svg>
